<?xml version="1.0" encoding="utf-8"?>
<!-- Generator: Adobe Illustrator 23.0.3, SVG Export Plug-In . SVG Version: 6.00 Build 0)  -->
<svg version="1.1" id="Icons" xmlns="http://www.w3.org/2000/svg" xmlns:xlink="http://www.w3.org/1999/xlink" x="0px" y="0px"
	 viewBox="0 0 32 32" style="enable-background:new 0 0 32 32;" xml:space="preserve">
    <style type="text/css">
	.st0{fill:#fff;}
</style>
    <g fill="#e34d62">
        <path d="M23,28L23,28c-1.1,0-2.1-0.7-2.5-1.8c0-0.1,0-0.2-0.1-0.2h-8.9c0,0.1,0,0.2-0.1,0.2C11.1,27.3,10.1,28,9,28h0
		c-0.6,0-1,0.4-1,1s0.4,1,1,1h14c0.6,0,1-0.4,1-1S23.6,28,23,28z"/>
        <path d="M27,3H5C3.3,3,2,4.3,2,6v15c0,1.7,1.3,3,3,3h6.9h8.1H27c1.7,0,3-1.3,3-3V6C30,4.3,28.7,3,27,3z"/>
    </g>
    <path class="st0" d="M15,20V10c0-1.7-1.3-3-3-3H7C6.4,7,6,7.4,6,8v8c0,0.6,0.4,1,1,1h5C13.7,17,15,18.3,15,20L15,20"/>
    <path class="st0" d="M17,20V10c0-1.7,1.3-3,3-3h5c0.6,0,1,0.4,1,1v8c0,0.6-0.4,1-1,1h-5C18.3,17,17,18.3,17,20L17,20"/>
</svg>